<?xml version="1.0" encoding="UTF-8"?>
<!DOCTYPE svg PUBLIC "-//W3C//DTD SVG 1.1//EN" "http://www.w3.org/Graphics/SVG/1.1/DTD/svg11.dtd">
<!-- Creator: CorelDRAW X7 -->
<svg xmlns="http://www.w3.org/2000/svg" xml:space="preserve" width="215.9mm" height="279.4mm" version="1.1" style="shape-rendering:geometricPrecision; text-rendering:geometricPrecision; image-rendering:optimizeQuality; fill-rule:evenodd; clip-rule:evenodd"
viewBox="0 0 21590 27940"
 xmlns:xlink="http://www.w3.org/1999/xlink"
 enable-background="new 0 0 1000 1000">
 <defs>
  <style type="text/css">
   <![CDATA[
    .fil0 {fill:#F95E29}
   ]]>
  </style>
 </defs>
 <g id="Capa_x0020_1">
  <metadata id="CorelCorpID_0Corel-Layer"/>
  <path class="fil0" d="M2334 23670c-13,585 -497,1048 -1082,1037 -585,-13 -1047,-497 -1036,-1082 116,-5510 5596,-9038 10579,-9038 5100,0 10463,3528 10579,9038 11,585 -453,1069 -1036,1082 -585,11 -1069,-454 -1082,-1037 -91,-4300 -4463,-6965 -8461,-6965 -4016,0 -8375,2801 -8461,6965z"/>
  <g>
   <path class="fil0" d="M10795 13819c2336,0 4236,-1900 4236,-4236 0,-2334 -1900,-4236 -4236,-4236 -2334,0 -4234,1900 -4234,4236 0,2336 1898,4236 4234,4236l0 0zm0 2118c-3508,0 -6352,-2844 -6352,-6352 0,-3508 2844,-6352 6352,-6352 3508,0 6354,2844 6354,6352 -2,3508 -2846,6352 -6354,6352l0 0 0 0z"/>
  </g>
 </g>
</svg>
